<svg xmlns="http://www.w3.org/2000/svg" viewBox="0 0 44.24 36.07"><defs><style>.cls-1{fill:#f4eeea;}.cls-2{fill:#eae4df;}.cls-3{fill:#ede7e4;}.cls-4{fill:#ccc6c4;}.cls-5{fill:#f9f6f4;}.cls-6{fill:#ddd7d3;}.cls-7{fill:#efe9e6;}.cls-8{fill:#c2bdba;}.cls-9{fill:#d6cfcc;}.cls-10{fill:#be8ebb;}.cls-11{fill:#be7ec3;}.cls-12{fill:#b17ec3;}.cls-13{fill:#be6cbe;}.cls-14{fill:#a26aa0;}.cls-15{fill:#924f92;}.cls-16{fill:#be83d4;}.cls-17{fill:#a259a2;}.cls-18{fill:#be69c5;}.cls-19{fill:#be5cb8;}</style></defs><g id="Capa_2" data-name="Capa 2"><g id="Layer_1" data-name="Layer 1"><polygon class="cls-1" points="11.06 7.61 0 7.61 5.38 12.82 11.06 7.61"/><polygon class="cls-2" points="0 7.61 2.65 20.69 5.38 12.82 0 7.61"/><polygon class="cls-1" points="22.12 13.1 22.12 7.61 11.06 7.61 22.12 13.1"/><polygon class="cls-3" points="6.88 0 0 7.61 11.06 7.61 6.88 0"/><polygon class="cls-4" points="2.65 20.69 12.38 30.4 10.76 19 2.65 20.69"/><polygon class="cls-5" points="22.12 7.61 15.43 0 11.06 7.61 22.12 7.61"/><polygon class="cls-1" points="15.43 0 6.88 0 11.06 7.61 15.43 0"/><polygon class="cls-6" points="10.76 19 22.12 24.51 22.12 13.1 10.76 19"/><polygon class="cls-7" points="11.06 7.61 10.76 19 22.12 13.1 11.06 7.61"/><polygon class="cls-8" points="12.38 30.4 22.12 36.07 22.12 24.51 12.38 30.4"/><polygon class="cls-6" points="5.38 12.82 2.65 20.69 10.76 19 5.38 12.82"/><polygon class="cls-2" points="5.38 12.82 10.76 19 11.06 7.61 5.38 12.82"/><polygon class="cls-9" points="10.76 19 12.38 30.4 22.12 24.51 10.76 19"/><polygon class="cls-10" points="37.35 0 28.81 0 33.18 7.61 37.35 0"/><polygon class="cls-11" points="38.86 12.82 44.24 7.61 33.18 7.61 38.86 12.82"/><polygon class="cls-12" points="44.24 7.61 37.35 0 33.18 7.61 44.24 7.61"/><polygon class="cls-13" points="22.12 13.1 33.48 19 33.18 7.61 22.12 13.1"/><polygon class="cls-14" points="22.12 24.51 33.48 19 22.12 13.1 22.12 24.51"/><polygon class="cls-15" points="22.12 36.07 31.85 30.4 22.12 24.51 22.12 36.07"/><polygon class="cls-15" points="31.85 30.4 41.59 20.69 33.48 19 31.85 30.4"/><polygon class="cls-15" points="38.86 12.82 41.59 20.69 44.24 7.61 38.86 12.82"/><polygon class="cls-11" points="33.18 7.61 22.12 7.61 22.12 13.1 33.18 7.61"/><polygon class="cls-16" points="28.81 0 22.12 7.61 33.18 7.61 28.81 0"/><polygon class="cls-17" points="22.12 24.51 31.85 30.4 33.48 19 22.12 24.51"/><polygon class="cls-18" points="33.48 19 38.86 12.82 33.18 7.61 33.48 19"/><polygon class="cls-19" points="33.48 19 41.59 20.69 38.86 12.82 33.48 19"/></g></g></svg>