<svg xmlns="http://www.w3.org/2000/svg" viewBox="0 0 124.34 36.07"><defs><style>.cls-1{fill:#f4eeea;}.cls-2{fill:#eae4df;}.cls-3{fill:#ede7e4;}.cls-4{fill:#ccc6c4;}.cls-5{fill:#f9f6f4;}.cls-6{fill:#ddd7d3;}.cls-7{fill:#efe9e6;}.cls-8{fill:#c2bdba;}.cls-9{fill:#d6cfcc;}.cls-10{fill:#be8ebb;}.cls-11{fill:#be7ec3;}.cls-12{fill:#b17ec3;}.cls-13{fill:#be6cbe;}.cls-14{fill:#a26aa0;}.cls-15{fill:#924f92;}.cls-16{fill:#be83d4;}.cls-17{fill:#a259a2;}.cls-18{fill:#be69c5;}.cls-19{fill:#be5cb8;}.cls-20{fill:#696969;}</style></defs><g id="Capa_2" data-name="Capa 2"><g id="Layer_1" data-name="Layer 1"><polygon class="cls-1" points="11.06 7.61 0 7.61 5.38 12.82 11.06 7.61"/><polygon class="cls-2" points="0 7.61 2.65 20.69 5.38 12.82 0 7.61"/><polygon class="cls-1" points="22.12 13.1 22.12 7.61 11.06 7.61 22.12 13.1"/><polygon class="cls-3" points="6.88 0 0 7.61 11.06 7.61 6.88 0"/><polygon class="cls-4" points="2.65 20.69 12.38 30.4 10.76 19 2.65 20.69"/><polygon class="cls-5" points="22.12 7.61 15.43 0 11.06 7.61 22.12 7.61"/><polygon class="cls-1" points="15.43 0 6.88 0 11.06 7.61 15.43 0"/><polygon class="cls-6" points="10.76 19 22.12 24.51 22.12 13.1 10.76 19"/><polygon class="cls-7" points="11.06 7.61 10.76 19 22.12 13.1 11.06 7.61"/><polygon class="cls-8" points="12.38 30.4 22.12 36.07 22.12 24.51 12.38 30.4"/><polygon class="cls-6" points="5.38 12.82 2.65 20.69 10.76 19 5.38 12.82"/><polygon class="cls-2" points="5.38 12.82 10.76 19 11.06 7.61 5.38 12.82"/><polygon class="cls-9" points="10.76 19 12.38 30.4 22.12 24.51 10.76 19"/><polygon class="cls-10" points="37.35 0 28.81 0 33.18 7.61 37.35 0"/><polygon class="cls-11" points="38.86 12.82 44.24 7.61 33.18 7.61 38.86 12.82"/><polygon class="cls-12" points="44.24 7.61 37.35 0 33.18 7.61 44.24 7.61"/><polygon class="cls-13" points="22.12 13.1 33.48 19 33.18 7.61 22.12 13.1"/><polygon class="cls-14" points="22.12 24.51 33.48 19 22.12 13.1 22.12 24.51"/><polygon class="cls-15" points="22.12 36.07 31.85 30.4 22.12 24.51 22.12 36.07"/><polygon class="cls-15" points="31.85 30.4 41.59 20.69 33.48 19 31.85 30.4"/><polygon class="cls-15" points="38.86 12.82 41.59 20.69 44.24 7.61 38.86 12.82"/><polygon class="cls-11" points="33.18 7.61 22.12 7.61 22.12 13.1 33.18 7.61"/><polygon class="cls-16" points="28.81 0 22.12 7.61 33.18 7.61 28.81 0"/><polygon class="cls-17" points="22.12 24.51 31.85 30.4 33.48 19 22.12 24.51"/><polygon class="cls-18" points="33.48 19 38.86 12.82 33.18 7.61 33.48 19"/><polygon class="cls-19" points="33.48 19 41.59 20.69 38.86 12.82 33.48 19"/><path class="cls-13" d="M53.17,15a.38.38,0,0,1-.29-.11.42.42,0,0,1-.11-.29V4.06a.4.4,0,0,1,.11-.29.38.38,0,0,1,.29-.11h2.14a.37.37,0,0,1,.28.11.35.35,0,0,1,.13.29v8.49h4.89A.41.41,0,0,1,61,13v1.62a.38.38,0,0,1-.12.29.4.4,0,0,1-.3.11Z"/><path class="cls-13" d="M66.16,15.16a5.41,5.41,0,0,1-2.29-.44,3.12,3.12,0,0,1-1.42-1.26,4.1,4.1,0,0,1-.56-2c0-.22,0-.46,0-.74s0-.51,0-.72a3.93,3.93,0,0,1,.58-2,3.39,3.39,0,0,1,1.45-1.24,6,6,0,0,1,4.5,0,3.33,3.33,0,0,1,1.45,1.24,3.93,3.93,0,0,1,.58,2c0,.21,0,.45,0,.72s0,.52,0,.74a4.09,4.09,0,0,1-.55,2,3.2,3.2,0,0,1-1.43,1.26A5.44,5.44,0,0,1,66.16,15.16Zm0-2a1.24,1.24,0,0,0,1.06-.44,2.37,2.37,0,0,0,.38-1.31c0-.16,0-.38,0-.65s0-.48,0-.65a2.39,2.39,0,0,0-.38-1.3,1.22,1.22,0,0,0-1.06-.45,1.24,1.24,0,0,0-1,.45,2.23,2.23,0,0,0-.37,1.3c0,.17,0,.38,0,.65s0,.49,0,.65a2.22,2.22,0,0,0,.37,1.31A1.26,1.26,0,0,0,66.16,13.18Z"/><path class="cls-13" d="M74.73,15a.49.49,0,0,1-.36-.12,1.15,1.15,0,0,1-.19-.28L71.12,7.07a.32.32,0,0,1,0-.14.33.33,0,0,1,.1-.25.37.37,0,0,1,.27-.11h1.83a.44.44,0,0,1,.32.11.56.56,0,0,1,.15.23l1.83,5,1.84-5a.9.9,0,0,1,.15-.23.46.46,0,0,1,.32-.11h1.83a.36.36,0,0,1,.26.11.33.33,0,0,1,.09.39L77,14.59a.75.75,0,0,1-.18.28.52.52,0,0,1-.38.12Z"/><path class="cls-13" d="M84.93,15.16a4.33,4.33,0,0,1-3-1A4.08,4.08,0,0,1,80.71,11v-.57a4.67,4.67,0,0,1,.57-2.19,3.49,3.49,0,0,1,1.46-1.39,4.7,4.7,0,0,1,2.18-.48A4.42,4.42,0,0,1,87.27,7a3.65,3.65,0,0,1,1.41,1.53,5.09,5.09,0,0,1,.46,2.22v.39a.37.37,0,0,1-.12.29.38.38,0,0,1-.28.12H83.56v.11a2.63,2.63,0,0,0,.16.86,1.34,1.34,0,0,0,.45.61,1.19,1.19,0,0,0,.75.23,1.17,1.17,0,0,0,.9-.35,2.45,2.45,0,0,0,.23-.23.72.72,0,0,1,.24-.2.66.66,0,0,1,.28,0h2a.4.4,0,0,1,.27.08.26.26,0,0,1,.08.26,1.43,1.43,0,0,1-.27.66,3.17,3.17,0,0,1-.75.77,4.23,4.23,0,0,1-1.24.62A5.7,5.7,0,0,1,84.93,15.16ZM83.56,9.92h2.73v0A2.55,2.55,0,0,0,86.14,9a1.24,1.24,0,0,0-1.22-.81,1.27,1.27,0,0,0-.74.21,1.46,1.46,0,0,0-.46.6,2.35,2.35,0,0,0-.16.91Z"/><path class="cls-20" d="M94.51,5.36a.41.41,0,0,1-.3-.12A.4.4,0,0,1,94.1,5V3.51a.44.44,0,0,1,.11-.3.41.41,0,0,1,.3-.12h1.92a.41.41,0,0,1,.42.42V5a.37.37,0,0,1-.12.29.41.41,0,0,1-.3.12Zm0,9.63a.38.38,0,0,1-.4-.4V7a.4.4,0,0,1,.11-.3.42.42,0,0,1,.29-.11h1.91a.44.44,0,0,1,.29.11.41.41,0,0,1,.12.3v7.61a.38.38,0,0,1-.12.29.39.39,0,0,1-.29.11Z"/><path class="cls-20" d="M102.2,15.16a5.83,5.83,0,0,1-1.79-.24,4.47,4.47,0,0,1-1.2-.57,2.69,2.69,0,0,1-.69-.71,1.4,1.4,0,0,1-.24-.62.36.36,0,0,1,.11-.3.41.41,0,0,1,.28-.12h1.93l.09.07a2.56,2.56,0,0,1,.42.28,2.9,2.9,0,0,0,.49.3,1.5,1.5,0,0,0,.66.13,1.51,1.51,0,0,0,.77-.18.58.58,0,0,0,.3-.53.65.65,0,0,0-.14-.43,1.36,1.36,0,0,0-.59-.33,9,9,0,0,0-1.34-.33,6.65,6.65,0,0,1-1.47-.51,2.49,2.49,0,0,1-1-.82A2.25,2.25,0,0,1,98.47,9a2.08,2.08,0,0,1,.43-1.25,3,3,0,0,1,1.23-1,4.71,4.71,0,0,1,2-.38,5.31,5.31,0,0,1,1.63.22,3.91,3.91,0,0,1,1.16.56,2.81,2.81,0,0,1,.72.69,1.27,1.27,0,0,1,.26.65.35.35,0,0,1-.09.28.35.35,0,0,1-.26.13h-1.69l-.13,0a.24.24,0,0,1-.11-.06,2.13,2.13,0,0,1-.39-.25,2.52,2.52,0,0,0-.45-.3,1.57,1.57,0,0,0-.65-.13,1.06,1.06,0,0,0-.68.2.62.62,0,0,0-.24.5.63.63,0,0,0,.13.39,1.18,1.18,0,0,0,.57.32,10.8,10.8,0,0,0,1.34.33,5.25,5.25,0,0,1,1.78.57,2.47,2.47,0,0,1,.94.93,2.39,2.39,0,0,1,.27,1.11,2.18,2.18,0,0,1-.46,1.37,2.93,2.93,0,0,1-1.37.93A6.44,6.44,0,0,1,102.2,15.16Z"/><path class="cls-20" d="M111.53,5.36a.41.41,0,0,1-.41-.41V3.51a.41.41,0,0,1,.12-.3.37.37,0,0,1,.29-.12h1.93a.44.44,0,0,1,.3.12.41.41,0,0,1,.12.3V5a.37.37,0,0,1-.12.29.44.44,0,0,1-.3.12Zm0,9.63a.39.39,0,0,1-.29-.11.42.42,0,0,1-.11-.29V7a.44.44,0,0,1,.11-.3.44.44,0,0,1,.29-.11h1.92a.43.43,0,0,1,.28.11.41.41,0,0,1,.12.3v7.61a.39.39,0,0,1-.4.4Z"/><path class="cls-20" d="M116.16,15a.36.36,0,0,1-.29-.11.38.38,0,0,1-.11-.29V7a.38.38,0,0,1,.4-.41H118a.4.4,0,0,1,.29.11.41.41,0,0,1,.12.3v.61a3.44,3.44,0,0,1,2.7-1.18,3.23,3.23,0,0,1,1.66.42,2.93,2.93,0,0,1,1.14,1.24,4.45,4.45,0,0,1,.41,2v4.52a.38.38,0,0,1-.12.29.39.39,0,0,1-.29.11h-2a.39.39,0,0,1-.4-.4V10.17A1.7,1.7,0,0,0,121.12,9a1.36,1.36,0,0,0-1.07-.41A1.4,1.4,0,0,0,119,9a1.62,1.62,0,0,0-.4,1.18v4.42a.38.38,0,0,1-.12.29.39.39,0,0,1-.29.11Z"/><path class="cls-20" d="M58,30.29A4.43,4.43,0,0,1,56.24,30a2.45,2.45,0,0,1-1.16-1,3.63,3.63,0,0,1-.4-1.82V24H53.42a.44.44,0,0,1-.3-.11.41.41,0,0,1-.12-.3V22.27a.38.38,0,0,1,.12-.29.44.44,0,0,1,.3-.11h1.26V19.2a.41.41,0,0,1,.12-.3.43.43,0,0,1,.28-.11H57a.38.38,0,0,1,.41.41v2.67h2a.4.4,0,0,1,.29.11.38.38,0,0,1,.12.29v1.31a.41.41,0,0,1-.12.3.4.4,0,0,1-.29.11h-2v2.88a1.61,1.61,0,0,0,.21.88.8.8,0,0,0,.71.32h1.25a.38.38,0,0,1,.29.12.36.36,0,0,1,.11.29v1.41a.39.39,0,0,1-.11.29.42.42,0,0,1-.29.11Z"/><path class="cls-20" d="M61.69,30.29a.42.42,0,0,1-.29-.11.44.44,0,0,1-.11-.29V19.2a.44.44,0,0,1,.11-.3.42.42,0,0,1,.29-.11h2.08a.44.44,0,0,1,.29.11.44.44,0,0,1,.11.3v3.61a3.11,3.11,0,0,1,1.08-.8,3.43,3.43,0,0,1,1.48-.3,3.35,3.35,0,0,1,1.68.42,2.89,2.89,0,0,1,1.15,1.24,4.2,4.2,0,0,1,.43,2v4.52a.39.39,0,0,1-.41.4H67.49a.41.41,0,0,1-.28-.11.4.4,0,0,1-.12-.29V25.46a1.73,1.73,0,0,0-.37-1.17,1.34,1.34,0,0,0-1.08-.41,1.39,1.39,0,0,0-1.06.41,1.6,1.6,0,0,0-.41,1.17v4.43a.38.38,0,0,1-.4.4Z"/><path class="cls-20" d="M75.7,30.45a4.32,4.32,0,0,1-3-1,4.08,4.08,0,0,1-1.18-3.08v-.57a4.67,4.67,0,0,1,.57-2.19,3.52,3.52,0,0,1,1.46-1.4,4.8,4.8,0,0,1,2.18-.47,4.52,4.52,0,0,1,2.35.56,3.59,3.59,0,0,1,1.4,1.54A5,5,0,0,1,79.91,26v.39a.39.39,0,0,1-.4.4H74.33v.12a2.63,2.63,0,0,0,.16.86,1.34,1.34,0,0,0,.45.61,1.24,1.24,0,0,0,.75.23,1.27,1.27,0,0,0,.54-.11,1.25,1.25,0,0,0,.36-.24,2.45,2.45,0,0,0,.23-.23,1,1,0,0,1,.24-.21.83.83,0,0,1,.28,0h2a.39.39,0,0,1,.26.09.27.27,0,0,1,.09.25,1.42,1.42,0,0,1-.27.67,3.59,3.59,0,0,1-.75.77,4.23,4.23,0,0,1-1.24.62A5.72,5.72,0,0,1,75.7,30.45Zm-1.37-5.23h2.73v0a2.52,2.52,0,0,0-.15-.91,1.24,1.24,0,0,0-.47-.6,1.32,1.32,0,0,0-.75-.21,1.24,1.24,0,0,0-.74.21,1.34,1.34,0,0,0-.46.6,2.31,2.31,0,0,0-.16.91Z"/><path class="cls-20" d="M87.41,30.45a3.57,3.57,0,0,1-1.56-.33,2.77,2.77,0,0,1-1.09-.9,2.15,2.15,0,0,1-.41-1.28,2.12,2.12,0,0,1,.94-1.82,5.89,5.89,0,0,1,2.5-.92l2-.3v-.23a1.41,1.41,0,0,0-.24-.89,1.08,1.08,0,0,0-.89-.31,1.35,1.35,0,0,0-.74.18,1.25,1.25,0,0,0-.45.49.45.45,0,0,1-.4.21H85.27a.35.35,0,0,1-.27-.11.29.29,0,0,1-.08-.25,1.35,1.35,0,0,1,.22-.67,2.71,2.71,0,0,1,.67-.76A3.78,3.78,0,0,1,87,22a5.34,5.34,0,0,1,1.71-.24,5.94,5.94,0,0,1,1.8.24,3.14,3.14,0,0,1,1.21.68,2.92,2.92,0,0,1,.69,1,3.62,3.62,0,0,1,.22,1.3v4.93a.4.4,0,0,1-.12.29.43.43,0,0,1-.28.11H90.33a.39.39,0,0,1-.41-.4v-.57a2.73,2.73,0,0,1-.56.57,3,3,0,0,1-.84.41A3.73,3.73,0,0,1,87.41,30.45Zm.76-1.84A1.7,1.7,0,0,0,89,28.4a1.32,1.32,0,0,0,.6-.63,2.28,2.28,0,0,0,.22-1.08v-.22l-1.37.24a2.56,2.56,0,0,0-1.11.4.75.75,0,0,0-.35.62.69.69,0,0,0,.16.47,1.08,1.08,0,0,0,.42.3A1.54,1.54,0,0,0,88.17,28.61Z"/><path class="cls-20" d="M94.85,33.37a.41.41,0,0,1-.41-.41V22.27a.38.38,0,0,1,.12-.29.4.4,0,0,1,.29-.11h1.83A.43.43,0,0,1,97,22a.38.38,0,0,1,.12.29v.6a3,3,0,0,1,1-.83,3.19,3.19,0,0,1,1.52-.33A3.73,3.73,0,0,1,101,22a2.88,2.88,0,0,1,1,.73,3.65,3.65,0,0,1,.69,1.19,5.14,5.14,0,0,1,.28,1.6c0,.22,0,.42,0,.6s0,.38,0,.6a5.36,5.36,0,0,1-.27,1.57,3.58,3.58,0,0,1-.68,1.18,3,3,0,0,1-1.06.76,3.81,3.81,0,0,1-1.44.26,3.12,3.12,0,0,1-1.38-.28,2.64,2.64,0,0,1-1-.8V33a.41.41,0,0,1-.41.41Zm3.87-5.09a1.44,1.44,0,0,0,.86-.22,1.33,1.33,0,0,0,.44-.62,3.2,3.2,0,0,0,.17-.86,8.34,8.34,0,0,0,0-1,3.2,3.2,0,0,0-.17-.86,1.28,1.28,0,0,0-.44-.62,1.44,1.44,0,0,0-.86-.22,1.48,1.48,0,0,0-.86.23,1.35,1.35,0,0,0-.47.61,2.38,2.38,0,0,0-.16.81c0,.2,0,.4,0,.6s0,.4,0,.61a2,2,0,0,0,.18.76,1.3,1.3,0,0,0,.48.56A1.43,1.43,0,0,0,98.72,28.28Z"/><path class="cls-20" d="M105.07,33.37a.41.41,0,0,1-.3-.12.4.4,0,0,1-.11-.29V22.27a.42.42,0,0,1,.11-.29.44.44,0,0,1,.3-.11h1.83a.43.43,0,0,1,.28.11.38.38,0,0,1,.12.29v.6a3,3,0,0,1,1-.83,3.19,3.19,0,0,1,1.52-.33,3.73,3.73,0,0,1,1.43.25,2.88,2.88,0,0,1,1.05.73,3.65,3.65,0,0,1,.69,1.19,5.14,5.14,0,0,1,.28,1.6c0,.22,0,.42,0,.6s0,.38,0,.6a5.36,5.36,0,0,1-.27,1.57,3.58,3.58,0,0,1-.68,1.18,3,3,0,0,1-1.06.76,3.81,3.81,0,0,1-1.44.26,3.12,3.12,0,0,1-1.38-.28,2.64,2.64,0,0,1-1-.8V33a.41.41,0,0,1-.41.41Zm3.87-5.09a1.44,1.44,0,0,0,.86-.22,1.33,1.33,0,0,0,.44-.62,3.2,3.2,0,0,0,.17-.86,8.34,8.34,0,0,0,0-1,3.2,3.2,0,0,0-.17-.86,1.28,1.28,0,0,0-.44-.62,1.44,1.44,0,0,0-.86-.22,1.48,1.48,0,0,0-.86.23,1.35,1.35,0,0,0-.47.61,2.38,2.38,0,0,0-.16.81c0,.2,0,.4,0,.6s0,.4,0,.61a2,2,0,0,0,.18.76,1.3,1.3,0,0,0,.48.56A1.43,1.43,0,0,0,108.94,28.28Z"/></g></g></svg>