<svg xmlns="http://www.w3.org/2000/svg" xmlns:xlink="http://www.w3.org/1999/xlink" viewBox="0 0 4689.98 3584.8"><defs><style>.cls-1{fill:none;clip-rule:evenodd;}.cls-2{fill:#fff;}.cls-10,.cls-11,.cls-12,.cls-14,.cls-15,.cls-2,.cls-3,.cls-5,.cls-6,.cls-8,.cls-9{fill-rule:evenodd;}.cls-3{fill:#ddb9c2;}.cls-4{clip-path:url(#clip-path);}.cls-5{fill:#dda5c4;}.cls-6{fill:#3d5a6a;}.cls-7{clip-path:url(#clip-path-2);}.cls-8{fill:#2a4655;}.cls-9{fill:#192e39;}.cls-10{fill:#c45706;}.cls-11{fill:#dd91c3;}.cls-12{fill:#42c541;}.cls-13{clip-path:url(#clip-path-3);}.cls-14{fill:#40973f;}.cls-15{fill:#97ea97;}</style><clipPath id="clip-path" transform="translate(0 9.79)"><path class="cls-1" d="M1075.44,3573.94l6.14-2713c0-230.39,174-417.15,388.58-417.15H3212.88c214.6,0,388.58,186.76,388.58,417.15V3433q-22.49,9.57-45.29,18.55c-202.51,79.71-423,123.49-653.7,123.49-214.18,0-419.6-37.75-610-107a1170.88,1170.88,0,0,0-860,24.2,1020.06,1020.06,0,0,1-306.07,78.1q-25.29,2.4-50.93,3.58Z"/></clipPath><clipPath id="clip-path-2" transform="translate(0 9.79)"><path class="cls-1" d="M1036.28,3575v-2714c0-257.24,194.26-465.77,433.88-465.77H3212.88c239.62,0,433.87,208.53,433.87,465.77v2552q-22.48,10.32-45.29,20-22.49,9.57-45.29,18.55V860.93c0-203.53-153.7-368.53-343.29-368.53H1470.16c-189.6,0-343.29,165-343.29,368.53l-.5,2709.43q-25.29,2.4-50.93,3.58-9.53.42-19.11.69-10,.27-20,.35Z"/></clipPath><clipPath id="clip-path-3" transform="translate(0 9.79)"><path class="cls-1" d="M3646.75,1.54c361.91,0,655.74,293.83,655.74,655.74S4008.66,1313,3646.75,1313,2991,1019.19,2991,657.28,3284.84,1.54,3646.75,1.54Z"/></clipPath></defs><g id="Capa_2" data-name="Capa 2"><g id="Capa_1-2" data-name="Capa 1"><path class="cls-2" d="M694,294.9c285.78,0,517.8,232,517.8,517.8s-232,517.8-517.8,517.8-517.8-232-517.8-517.8,232-517.8,517.8-517.8Z" transform="translate(0 9.79)"/><path class="cls-2" d="M2292.48,3468.06a1170.88,1170.88,0,0,0-860,24.2A1023.09,1023.09,0,0,1,1028,3575C460.65,3575,0,3114.36,0,2547c0-411.89,300.71-767.53,682.6-931.52a1170.74,1170.74,0,0,0,601.1-584.15C1566.76,421.07,2184.21,0,2902.47,0,3889,0,4690,801,4690,1787.51S3889,3575,2902.47,3575c-214.18,0-419.6-37.75-610-107Z" transform="translate(0 9.79)"/><path class="cls-3" d="M1075.44,3573.94l6.14-2713c0-230.39,174-417.15,388.58-417.15H3212.88c214.6,0,388.58,186.76,388.58,417.15V3433q-22.49,9.57-45.29,18.55c-202.51,79.71-423,123.49-653.7,123.49-214.18,0-419.6-37.75-610-107a1170.88,1170.88,0,0,0-860,24.2,1020.06,1020.06,0,0,1-306.07,78.1q-25.29,2.4-50.93,3.58Z" transform="translate(0 9.79)"/><g class="cls-4"><path class="cls-5" d="M3531.17,88.61c361.92,0,655.74,293.83,655.74,655.74s-293.82,655.74-655.74,655.74-655.74-293.83-655.74-655.74S3169.26,88.61,3531.17,88.61Z" transform="translate(0 9.79)"/></g><path class="cls-6" d="M1036.28,3575v-2714c0-257.24,194.26-465.77,433.88-465.77H3212.88c239.62,0,433.87,208.53,433.87,465.77v2552q-22.48,10.32-45.29,20-22.49,9.57-45.29,18.55V860.93c0-203.53-153.7-368.53-343.29-368.53H1470.16c-189.6,0-343.29,165-343.29,368.53V3465.12a3.48,3.48,0,0,0-.48-.3c-8.76-4.46-30.54,38.43-50.87,76.07-6.73,12.46-13.3,24.34-19.19,33.74q-10,.27-20,.35Z" transform="translate(0 9.79)"/><path class="cls-6" d="M1036.28,3575v-2714c0-257.24,194.26-465.77,433.88-465.77H3212.88c239.62,0,433.87,208.53,433.87,465.77v2552q-22.48,10.32-45.29,20-22.49,9.57-45.29,18.55V860.93c0-203.53-153.7-368.53-343.29-368.53H1470.16c-189.6,0-343.29,165-343.29,368.53l-.5,2709.43q-25.29,2.4-50.93,3.58-9.53.42-19.11.69-10,.27-20,.35Z" transform="translate(0 9.79)"/><g class="cls-7"><path class="cls-8" d="M3531.17,88.61c361.92,0,655.74,293.83,655.74,655.74s-293.82,655.74-655.74,655.74-655.74-293.83-655.74-655.74S3169.26,88.61,3531.17,88.61Z" transform="translate(0 9.79)"/></g><path class="cls-6" d="M2398.46,613.77a71.12,71.12,0,0,1,71.11,71.12h0A71.12,71.12,0,0,1,2398.46,756H2057.09A71.12,71.12,0,0,1,1986,684.89h0a71.12,71.12,0,0,1,71.12-71.12Z" transform="translate(0 9.79)"/><path class="cls-6" d="M2626,613.77a71.12,71.12,0,0,1,71.12,71.12h0A71.12,71.12,0,0,1,2626,756h-2.13a71.12,71.12,0,0,1-71.12-71.12h0a71.12,71.12,0,0,1,71.12-71.12Z" transform="translate(0 9.79)"/><path class="cls-9" d="M3646.75,1184.33a63.78,63.78,0,0,1,63.78,63.78v339.43a63.78,63.78,0,0,1-63.78,63.78h0v-467Z" transform="translate(0 9.79)"/><path class="cls-9" d="M3646.75,1836.07a63.78,63.78,0,0,1,63.78,63.78v339.43a63.78,63.78,0,0,1-63.78,63.78h0v-467Z" transform="translate(0 9.79)"/><path class="cls-10" d="M3646.75,2582.37a63.78,63.78,0,0,1,63.78,63.78V3069.7a63.78,63.78,0,0,1-63.78,63.78h0V2582.37Z" transform="translate(0 9.79)"/><path class="cls-2" d="M2941.31,1330.5c148.72,0,269.28,120.56,269.28,269.28V2749.32c0,148.72-120.56,269.28-269.28,269.28H1808.9c-148.72,0-269.28-120.56-269.28-269.28V1599.78c0-148.72,120.56-269.28,269.28-269.28Z" transform="translate(0 9.79)"/><path class="cls-11" d="M2472.38,1890.8c120.22,59.89,203.74,192,203.74,345.33H1978.78c0-153.34,83.52-285.44,203.74-345.33,31.29,50.84,84.55,84.33,144.93,84.33s113.64-33.49,144.93-84.33Z" transform="translate(0 9.79)"/><path class="cls-11" d="M2327.45,1574.34c96.22,0,174.34,85,174.34,189.78s-78.12,189.79-174.34,189.79-174.34-85-174.34-189.79,78.12-189.78,174.34-189.78Z" transform="translate(0 9.79)"/><path class="cls-5" d="M2786.2,2373.42a66,66,0,0,1,66,66h0a66,66,0,0,1-66,66H1903.78a66,66,0,0,1-66-66h0a66,66,0,0,1,66-66Z" transform="translate(0 9.79)"/><path class="cls-5" d="M2865.81,2642.74a66,66,0,0,1,66,66h0a66,66,0,0,1-66,66H1824.17a66,66,0,0,1-66-66h0a66,66,0,0,1,66-66Z" transform="translate(0 9.79)"/><path class="cls-2" d="M3095.6,3088.82a115,115,0,0,1,115,115h0a115,115,0,0,1-115,115h-1441a115,115,0,0,1-115-115h0a115,115,0,0,1,115-115Z" transform="translate(0 9.79)"/><path class="cls-12" d="M3646.75,1.54c361.91,0,655.74,293.83,655.74,655.74S4008.66,1313,3646.75,1313,2991,1019.19,2991,657.28,3284.84,1.54,3646.75,1.54Z" transform="translate(0 9.79)"/><g class="cls-13"><path class="cls-14" d="M4267.24,444.8a654,654,0,0,1,35.25,212.48c0,361.91-293.83,655.74-655.74,655.74-321.18,0-588.74-231.41-644.9-536.45,88.36,257.76,332.94,443.26,620.5,443.26,361.91,0,655.74-293.83,655.74-655.74a658.67,658.67,0,0,0-10.85-119.29Z" transform="translate(0 9.79)"/><path class="cls-15" d="M3026.26,869.76A654,654,0,0,1,2991,657.28c0-361.91,293.83-655.74,655.74-655.74,321.18,0,588.74,231.41,644.9,536.45-88.36-257.76-332.94-443.26-620.5-443.26-361.91,0-655.74,293.83-655.74,655.74a658.67,658.67,0,0,0,10.85,119.29Z" transform="translate(0 9.79)"/><path class="cls-15" d="M3604.54,2.34c210.11-27.29,386.22-7,393,45.36s-158.28,117-368.39,144.23-386.21,7-393-45.36S3394.43,29.62,3604.54,2.34Z" transform="translate(0 9.79)"/></g><path class="cls-2" d="M3594.49,888.78a39.09,39.09,0,0,1-55.28,0L3355.27,704.65a76.76,76.76,0,0,1,.06-108.57h0a76.77,76.77,0,0,1,108.57,0l95.33,95.43a10.91,10.91,0,0,0,15.43,0l255-254.77a76.78,76.78,0,0,1,108.58.05h0a76.78,76.78,0,0,1-.05,108.58L3594.49,888.78Z" transform="translate(0 9.79)"/></g></g></svg>